<?xml version="1.0" standalone="no"?><!DOCTYPE svg PUBLIC "-//W3C//DTD SVG 1.1//EN" "http://www.w3.org/Graphics/SVG/1.1/DTD/svg11.dtd"><svg t="1667369343679" class="icon" viewBox="0 0 1024 1024" version="1.1" xmlns="http://www.w3.org/2000/svg" p-id="1803" xmlns:xlink="http://www.w3.org/1999/xlink" width="200" height="200"><path d="M641.229 571.802c52.019-61.236 106.905-143.77 106.905-232.448 0-160.154-106.496-290.202-237.568-290.202-130.867 0-237.772 130.048-237.772 290.202 0 88.678 33.587 148.07 100.556 231.014C483.942 733.594 122.47 745.472 67.79 862.003c-16.18 34.611-19.047 61.44-18.842 92.365 0 3.891-0.41 8.192 1.639 11.469 2.048 3.277 5.12 5.12 8.396 5.12h901.53c3.277 0 6.349-2.048 8.192-5.12 2.048-3.277 1.638-7.373 1.638-11.469 0.615-34.611-3.89-65.536-13.107-84.582C899.686 747.93 482.1 757.146 641.23 571.802" fill="#bdc0c5" p-id="1804"></path></svg>