<?xml version="1.0" standalone="no"?><!DOCTYPE svg PUBLIC "-//W3C//DTD SVG 1.1//EN" "http://www.w3.org/Graphics/SVG/1.1/DTD/svg11.dtd"><svg class="icon" width="200px" height="200.00px" viewBox="0 0 1024 1024" version="1.1" xmlns="http://www.w3.org/2000/svg"><path fill="#FF9000" d="M909.7 680.11h-51.34V506.65c0-26.8-21.8-48.61-48.6-48.61H543.88v-113.9h52.07c26.13 0 47.4-21.26 47.4-47.4V130.51c0-26.13-21.26-47.4-47.4-47.4H429.71c-26.13 0-47.4 21.26-47.4 47.4v166.24c0 26.13 21.26 47.4 47.4 47.4h52.07v113.9H215.91c-26.8 0-48.61 21.81-48.61 48.61v173.45h-52.82c-26.13 0-47.39 21.26-47.39 47.4v166.24c0 26.13 21.25 47.4 47.39 47.4h166.24c26.13 0 47.4-21.26 47.4-47.4V727.51c0-26.13-21.26-47.4-47.4-47.4H229.4V520.14h252.39v159.97h-52.07c-26.13 0-47.4 21.26-47.4 47.4v166.24c0 26.13 21.26 47.4 47.4 47.4h166.24c26.13 0 47.4-21.26 47.4-47.4V727.51c0-26.13-21.26-47.4-47.4-47.4h-52.07V520.14h252.39v159.97h-52.81c-26.13 0-47.39 21.26-47.39 47.4v166.24c0 26.13 21.25 47.4 47.39 47.4H909.7c26.13 0 47.4-21.26 47.4-47.4V727.51c0-26.14-21.26-47.4-47.4-47.4zM444.41 145.2h136.85v136.85H444.41V145.2zM266.03 879.05H129.19V742.2h136.84v136.85z m315.23 0H444.41V742.2h136.85v136.85z m313.75 0H758.17V742.2h136.84v136.85z"  /></svg>