<?xml version="1.0" standalone="no"?><!DOCTYPE svg PUBLIC "-//W3C//DTD SVG 1.1//EN" "http://www.w3.org/Graphics/SVG/1.1/DTD/svg11.dtd"><svg class="icon" width="200px" height="200.00px" viewBox="0 0 1024 1024" version="1.1" xmlns="http://www.w3.org/2000/svg"><path fill="#FF9000" d="M512 928.540444c-54.727111 0-107.747556-10.695111-157.696-31.857777-48.241778-20.366222-91.591111-49.607111-128.796444-86.812445-37.205333-37.205333-66.446222-80.554667-86.812445-128.796444-21.162667-49.948444-31.857778-103.082667-31.857778-157.696s10.695111-107.747556 31.857778-157.696c20.366222-48.241778 49.607111-91.591111 86.812445-128.796445 37.205333-37.205333 80.554667-66.446222 128.796444-86.812444 49.948444-21.162667 103.082667-31.857778 157.696-31.857778s107.747556 10.695111 157.696 31.857778c48.241778 20.366222 91.591111 49.607111 128.796444 86.812444 37.205333 37.205333 66.446222 80.554667 86.812445 128.796445 21.162667 49.948444 31.857778 103.082667 31.857778 157.696s-10.695111 107.747556-31.857778 157.696c-20.366222 48.241778-49.607111 91.591111-86.812445 128.796444-37.205333 37.205333-80.554667 66.446222-128.796444 86.812445-49.948444 21.162667-102.968889 31.857778-157.696 31.857777z m0-742.058666c-89.998222 0-174.535111 35.043556-238.250667 98.645333S175.104 433.379556 175.104 523.377778s35.043556 174.535111 98.645333 238.250666 148.252444 98.645333 238.250667 98.645334 174.535111-35.043556 238.250667-98.645334 98.645333-148.252444 98.645333-238.250666-35.043556-174.535111-98.645333-238.250667-148.252444-98.645333-238.250667-98.645333z"  /><path fill="#FF9000" d="M489.244444 580.266667c-18.887111 0-34.133333-15.246222-34.133333-34.133334V324.380444c0-18.887111 15.246222-34.133333 34.133333-34.133333s34.133333 15.246222 34.133334 34.133333V546.133333c0 18.887111-15.246222 34.133333-34.133334 34.133334z"  /><path fill="#FF9000" d="M665.486222 580.266667H489.244444c-18.887111 0-34.133333-15.246222-34.133333-34.133334s15.246222-34.133333 34.133333-34.133333h176.241778c18.887111 0 34.133333 15.246222 34.133334 34.133333s-15.246222 34.133333-34.133334 34.133334z"  /></svg>