<?xml version="1.0" standalone="no"?><!DOCTYPE svg PUBLIC "-//W3C//DTD SVG 1.1//EN" "http://www.w3.org/Graphics/SVG/1.1/DTD/svg11.dtd"><svg class="icon" width="96px" height="96px" viewBox="0 0 1024 1024" version="1.1" xmlns="http://www.w3.org/2000/svg"><path fill="#E9EBF3" d="M512 1024c-70.144 0-134.144-56.832-180.224-159.744-41.984-94.72-65.024-219.648-65.024-352.256s23.04-257.536 65.024-352.256C377.856 56.832 441.856 0 512 0c70.144 0 134.144 56.832 180.224 159.744 41.984 94.72 65.024 219.648 65.024 352.256s-23.04 257.536-65.024 352.256c-46.08 102.912-110.08 159.744-180.224 159.744z m0-960c-86.016 0-181.248 183.808-181.248 448s95.744 448 181.248 448c86.016 0 181.248-183.808 181.248-448S598.016 64 512 64z"  /><path fill="#E9EBF3" d="M776.704 846.848c-15.872 0-32.256-1.024-49.664-2.56-102.912-10.752-223.232-53.248-337.92-119.808S177.664 575.488 116.736 491.52C50.688 400.896 33.28 316.928 68.608 256S184.832 167.936 296.96 179.712c102.912 10.752 223.232 53.248 337.92 119.808 114.688 66.048 211.456 148.992 272.384 232.448 66.048 91.136 83.456 174.592 48.128 235.52-29.696 52.224-92.16 79.36-178.688 79.36zM247.296 241.152c-61.44 0-105.472 16.384-123.392 47.104-43.008 74.24 68.608 248.832 297.472 380.928 228.864 132.096 435.712 141.312 478.72 67.072 43.008-74.24-68.608-248.832-297.472-380.928-107.008-61.952-218.112-101.376-312.32-111.616-15.36-2.048-29.696-2.56-43.008-2.56z"  /><path fill="#E9EBF3" d="M247.296 846.848c-86.528 0-148.992-27.136-178.688-78.848-35.328-60.928-17.92-144.896 48.128-235.52C177.664 448.512 274.432 366.08 389.12 299.52c114.688-66.048 235.008-109.056 337.92-119.808 112.128-11.776 193.024 15.36 228.352 76.288 35.328 60.928 17.92 144.896-48.128 235.52-60.928 83.968-157.696 166.4-272.384 232.96s-235.008 109.056-337.92 119.808c-17.408 1.536-33.792 2.56-49.664 2.56zM776.192 241.664c-90.624 0-219.136 35.328-354.816 113.664-107.008 61.952-197.12 138.24-252.928 215.04-49.664 68.608-66.048 129.024-44.544 165.888s81.92 53.248 165.888 44.544c94.208-9.728 205.312-49.664 312.32-111.616 228.864-132.096 339.968-306.688 297.472-380.928-16.896-30.208-61.44-46.592-123.392-46.592z"  /></svg>