<?xml version="1.0" standalone="no"?><!DOCTYPE svg PUBLIC "-//W3C//DTD SVG 1.1//EN" "http://www.w3.org/Graphics/SVG/1.1/DTD/svg11.dtd"><svg class="icon" width="96px" height="181.40px" viewBox="0 0 1129 1024" version="1.1" xmlns="http://www.w3.org/2000/svg"><path fill="#E9EBF3" d="M823.966897 778.593103H340.568276a17.655172 17.655172 0 0 1 0-35.310344h483.398621a17.655172 17.655172 0 0 1 0 35.310344zM313.908966 719.095172a17.655172 17.655172 0 0 1-15.36-26.482758l233.224827-403.773793a17.655172 17.655172 0 1 1 30.543448 17.655172L329.092414 710.267586a17.655172 17.655172 0 0 1-15.183448 8.827586zM851.332414 719.095172a17.655172 17.655172 0 0 1-15.183448-8.827586L602.924138 306.493793a17.655172 17.655172 0 1 1 30.543448-17.655172l233.224828 403.773793a17.655172 17.655172 0 0 1-15.36 26.482758z"  /><path fill="#E9EBF3" d="M885.583448 831.911724a79.271724 79.271724 0 1 1 79.271724-79.271724 79.271724 79.271724 0 0 1-79.271724 79.271724z m0-123.586207a43.961379 43.961379 0 1 0 43.96138 43.96138 43.961379 43.961379 0 0 0-43.96138-43.608276zM582.62069 315.321379a79.271724 79.271724 0 1 1 79.271724-79.271724A79.448276 79.448276 0 0 1 582.62069 315.321379z m0-123.586207a43.961379 43.961379 0 1 0 43.961379 43.96138A44.137931 44.137931 0 0 0 582.62069 192.088276zM279.657931 831.911724a79.271724 79.271724 0 1 1 79.095172-79.271724 79.271724 79.271724 0 0 1-79.095172 79.271724z m0-123.586207a43.961379 43.961379 0 1 0 43.784828 43.96138 43.961379 43.961379 0 0 0-43.784828-43.608276z"  /></svg>