<?xml version="1.0" standalone="no"?><!DOCTYPE svg PUBLIC "-//W3C//DTD SVG 1.1//EN" "http://www.w3.org/Graphics/SVG/1.1/DTD/svg11.dtd"><svg class="icon" width="96px" height="96px" viewBox="0 0 1024 1024" version="1.1" xmlns="http://www.w3.org/2000/svg"><path fill="#E9EBF3" d="M678.4 272.839111c22.755556 0 45.511111 21.048889 45.511111 47.217778 0 25.6-22.755556 47.217778-45.511111 47.217778h-5.688889v125.724444l193.422222 262.257778c68.266667 93.297778 0 225.848889-113.777777 225.848889h-477.866667c-113.777778 0-182.044444-132.551111-113.777778-225.848889l193.422222-262.257778v-125.724444h-5.688889c-22.755556 0-45.511111-21.617778-45.511111-47.217778 0-26.168889 22.755556-47.217778 45.511111-47.217778h329.955556z m-5.688889 377.742222h-318.577778l-113.777777 160.426667c-21.504 29.582222-2.389333 70.769778 28.558222 75.264l5.575111 0.398222h477.866667c32.256 0 54.328889-39.594667 37.546666-70.314666l-3.413333-5.347556-113.777778-160.426667z m-256 47.217778c28.444444 0 51.2 21.048889 51.2 47.217778 0 25.6-22.755556 47.217778-51.2 47.217778-22.755556 0-45.511111-21.617778-45.511111-47.217778 0-26.168889 22.755556-47.217778 45.511111-47.217778z m159.288889-330.524444h-125.155556v141.653333c0 9.671111-5.688889 19.911111-11.377777 27.875556l-11.377778 19.342222h170.666667l-11.377778-19.342222c-5.688889-7.964444-11.377778-18.204444-11.377778-27.875556v-141.653333z m28.444444-236.088889c28.444444 0 51.2 21.048889 51.2 47.217778 0 25.6-22.755556 47.217778-51.2 47.217777-22.755556 0-45.511111-21.617778-45.511111-47.217777 0-26.168889 22.755556-47.217778 45.511111-47.217778z m-159.288888-94.435556c34.133333 0 68.266667 31.288889 68.266666 70.542222s-34.133333 71.111111-68.266666 71.111112c-39.822222 0-73.955556-31.857778-73.955556-71.111112s34.133333-70.542222 73.955556-70.542222z"  /></svg>