<?xml version="1.0" standalone="no"?><!DOCTYPE svg PUBLIC "-//W3C//DTD SVG 1.1//EN" "http://www.w3.org/Graphics/SVG/1.1/DTD/svg11.dtd"><svg class="icon" width="200px" height="200.00px" viewBox="0 0 1024 1024" version="1.1" xmlns="http://www.w3.org/2000/svg"><path fill="#FF9000" d="M 437.201 818.232 c 28.4769 -28.4769 42.6023 -67.5156 39.7815 -109.924 c -2.71312 -40.6859 -20.8974 -79.7784 -51.2046 -110.086 s -69.3997 -48.4484 -110.075 -51.1939 c -42.4085 -2.83154 -81.458 11.2939 -109.935 39.7708 a 34.4522 34.4522 0 0 0 0 48.7283 l 66.988 66.988 l -0.376822 0.387587 a 34.4522 34.4522 0 0 0 0 48.7176 a 34.4522 34.4522 0 0 0 48.7283 0 l 0.376821 -0.376822 l 66.988 66.988 a 34.4522 34.4522 0 0 0 48.7283 0 Z m -151.568 -200.254 c 29.3705 -7.53642 65.007 2.58392 91.4275 29.0045 s 36.6054 62.0463 28.9937 91.4167 Z M 298.262 804.332 a 78.691 78.691 0 0 1 -78.5941 -78.5941 a 34.4522 34.4522 0 0 0 -68.9044 0 a 147.66 147.66 0 0 0 147.499 147.499 a 34.4522 34.4522 0 0 0 0 -68.9044 Z"  /><path fill="#FF9000" d="M 318.061 923.096 C 198.318 923.096 100.904 825.682 100.904 705.95 a 34.4522 34.4522 0 0 0 -68.9044 0 a 286.05 286.05 0 0 0 286.061 286.05 a 34.4522 34.4522 0 0 0 0 -68.9044 Z M 979.953 653.572 a 41.2027 41.2027 0 0 0 0 -58.2781 L 848.883 464.3 a 41.1812 41.1812 0 0 0 -58.2458 0 l -44.2281 44.1957 l -35.7011 -35.6796 l 10.7663 -10.6802 l 87.3578 -87.3256 a 103.184 103.184 0 0 0 0 -145.819 l -14.5561 -14.4161 l -0.183027 -0.183027 a 102.722 102.722 0 0 0 -145.442 0.183027 l -87.4224 87.3256 l -10.7663 10.7017 l -34.969 -34.9797 L 559.722 233.33 a 41.2027 41.2027 0 0 0 0 -58.2673 L 428.652 44.069 a 41.2027 41.2027 0 0 0 -58.2458 0 L 239.316 175.052 a 41.1812 41.1812 0 0 0 0 58.2673 L 370.385 364.528 a 41.2242 41.2242 0 0 0 58.2673 0 l 38.1451 -38.1881 l 34.969 34.9797 l -57.0615 57.1476 a 102.603 102.603 0 0 0 -9.90497 133.502 c 2.89614 2.46548 6.05067 4.53262 8.79607 7.20266 c 3.64978 3.62825 7.61179 6.93351 11.2185 10.551 a 50.6017 50.6017 0 0 1 6.77201 8.1178 c 40.3522 39.4585 103.432 40.6213 143.321 0.689045 l 57.0615 -56.9753 l 35.7011 35.6903 l -38.102 38.0805 a 41.1704 41.1704 0 0 0 0 58.2673 l 131.048 131.122 a 41.2027 41.2027 0 0 0 58.2673 0 Z M 307.617 204.207 l 91.9013 -91.8367 l 91.8905 91.8367 l -91.8905 91.9874 Z m 248.572 325.573 a 30.3072 30.3072 0 0 1 -22.1355 9.22673 a 34.5922 34.5922 0 0 1 -21.242 -7.80558 a 131.349 131.349 0 0 0 -9.24826 -10.2495 c -2.9715 -2.96074 -5.75998 -5.51235 -8.01014 -7.53642 c -1.37809 -1.24889 -2.67005 -2.42243 -3.44522 -3.22989 l -0.161495 -0.161495 l -0.172261 -0.161495 c -1.72261 -1.69031 -3.38063 -3.22989 -4.93097 -4.52185 a 33.7524 33.7524 0 0 1 6.65359 -38.2312 l 56.9969 -57.0615 l 62.7353 62.7461 Z m 116.578 -116.427 l -10.7663 10.7663 l -62.7784 -62.7676 l 10.6586 -10.6156 l 87.3578 -87.3256 l 0.0645975 -0.0645984 l 0.0753647 -0.0753637 a 33.817 33.817 0 0 1 47.8671 -0.0645984 v 0.0645984 l 0.193793 0.183027 l 0.183027 0.183027 l 14.373 14.233 a 34.323 34.323 0 0 1 -0.08613 48.3408 Z m 55.102 211.085 l 91.9013 -91.8367 l 91.9013 91.8367 l -91.9013 91.9874 Z"  /></svg>