<?xml version="1.0" standalone="no"?><!DOCTYPE svg PUBLIC "-//W3C//DTD SVG 1.1//EN" "http://www.w3.org/Graphics/SVG/1.1/DTD/svg11.dtd"><svg class="icon" width="96px" height="96.00px" viewBox="0 0 1024 1024" version="1.1" xmlns="http://www.w3.org/2000/svg"><path fill="#E9EBF3" d="M810 279.4c-6.9-33.8-36.7-124.7-160.6-169.3-131.3-47.3-220 60.5-243.6 93.7-142-6.9-189.5 97.2-202.8 138.6-21.8-1.6-60.2 0-91.8 24.8-30.9 24.4-46.9 64.1-47.7 118-0.7 45.1 13.5 81.6 42.2 108.7 59 55.6 157.9 49.1 162.1 48.8 9.9-0.7 17.3-9.3 16.6-19.2s-9.4-17.3-19.2-16.6c-0.9 0-87.2 5.8-134.9-39.1-21.3-20.1-31.5-47-30.9-82.1 0.6-42.5 12-72.9 33.9-90.3 32.3-25.6 78.6-15.9 79-15.9 4.8 1.1 9.8 0.2 13.8-2.6 4.1-2.7 6.9-7 7.7-11.8 1-5.6 26.3-137.7 179.6-125.1 6.9 0.7 13.4-2.8 16.9-8.7 0.8-1.3 80.9-133.1 206.9-87.7 128.1 46.2 138.6 147.1 139 151.3 0.6 7.8 6.2 14.2 13.7 16 6.4 1.5 156.6 38.8 130.4 178-26.1 138.6-174.6 119.3-180.9 118.4-9.8-1.3-18.9 5.4-20.3 15.2-1.4 9.8 5.4 18.8 15.1 20.3 8.9 1.3 19.1 2.1 30.1 2.1 68.8 0 168.7-30.2 191.1-149.3 24.7-130-78.4-196-145.4-216.2z"  /><path fill="#E9EBF3" d="M430.9 498.7c-8.5-5-19.5-2.2-24.5 6.3L178 892.1c-5 8.5-2.2 19.5 6.3 24.5 2.9 1.7 6 2.5 9.1 2.5 6.1 0 12.1-3.1 15.4-8.8l228.4-387.1c5.1-8.5 2.2-19.5-6.3-24.5zM563.5 506.7c-8.5-5.1-19.5-2.3-24.6 6.2L344.8 837.2c-5.1 8.5-2.3 19.5 6.2 24.6 2.9 1.7 6.1 2.5 9.2 2.5 6.1 0 12-3.1 15.4-8.7l194.2-324.3c4.9-8.5 2.2-19.5-6.3-24.6zM691 498.6c-8.6-4.9-19.5-1.9-24.4 6.7l-225 396.3c-4.9 8.6-1.9 19.5 6.7 24.4 2.8 1.6 5.8 2.3 8.8 2.3 6.2 0 12.3-3.3 15.6-9.1l225-396.3c5-8.5 2-19.5-6.7-24.3zM605.9 800.9c-15.2 23.9-7.9 55.4 16.3 70.4 24.1 15 54.1 6.4 71.1-16.1 15.1-20.1 11.3-58.2 11.3-112.2-25.4 13-83.5 34-98.7 57.9z"  /></svg>