<?xml version="1.0" standalone="no"?><!DOCTYPE svg PUBLIC "-//W3C//DTD SVG 1.1//EN" "http://www.w3.org/Graphics/SVG/1.1/DTD/svg11.dtd"><svg class="icon" width="96px" height="96px" viewBox="0 0 1024 1024" version="1.1" xmlns="http://www.w3.org/2000/svg"><path fill="#E9EBF3" d="M583.393981 909.289085l-157.567091-82.836617-157.567091 82.836617 30.092511-175.453748-127.47458-124.25681 176.166085-25.597998 78.783075-159.633436 78.783074 159.633436 176.165144 25.597998-127.473638 124.25681 30.092511 175.453748zM425.82689 783.871428l107.510271 56.520627-20.533425-119.714241 86.976846-84.782355-120.199499-17.465473-53.755135-108.919871-53.755136 108.919871-120.199499 17.465473 86.976846 84.782355-20.532483 119.714241 107.511214-56.520627z"  /><path fill="#E9EBF3" d="M807.457259 67.350804l31.953447 19.986922-277.237047 443.224992-31.95439-19.986923zM675.748225 102.302478l31.953447 19.986922L535.970739 396.83822l-31.953447-19.986923zM837.249194 203.320674l31.953447 19.986922L650.331139 573.221964l-31.953447-19.986922z"  /></svg>