<?xml version="1.0" standalone="no"?><!DOCTYPE svg PUBLIC "-//W3C//DTD SVG 1.1//EN" "http://www.w3.org/Graphics/SVG/1.1/DTD/svg11.dtd"><svg class="icon" width="96px" height="96px" viewBox="0 0 1024 1024" version="1.1" xmlns="http://www.w3.org/2000/svg"><path fill="#E9EBF3" d="M669.0816 824.32c-134.9632 0-244.9408-109.7728-244.9408-244.9408 0-134.9632 109.7728-244.9408 244.9408-244.9408S913.8176 444.6208 913.8176 579.584s-109.7728 244.736-244.736 244.736z m0-450.1504c-113.2544 0-205.2096 92.16-205.2096 205.2096 0 113.2544 92.16 205.2096 205.2096 205.2096s205.2096-92.16 205.2096-205.2096-92.16-205.2096-205.2096-205.2096zM279.3472 374.1696c-93.3888 0-169.3696-75.9808-169.3696-169.3696s75.9808-169.3696 169.3696-169.3696 169.3696 75.9808 169.3696 169.3696-75.9808 169.3696-169.3696 169.3696z m0-298.8032c-71.4752 0-129.6384 58.1632-129.6384 129.6384s58.1632 129.6384 129.6384 129.6384 129.6384-58.1632 129.6384-129.6384-57.9584-129.6384-129.6384-129.6384zM316.2112 1007.616c-78.2336 0-141.9264-63.6928-141.9264-141.9264s63.6928-141.9264 141.9264-141.9264c78.2336 0 141.9264 63.6928 141.9264 141.9264S394.4448 1007.616 316.2112 1007.616z m0-244.3264c-56.5248 0-102.4 45.8752-102.4 102.4s45.8752 102.4 102.4 102.4 102.4-45.8752 102.4-102.4-46.08-102.4-102.4-102.4zM781.5168 280.9856c-72.9088 0-132.3008-59.392-132.3008-132.3008S708.608 16.384 781.5168 16.384c72.9088 0 132.3008 59.392 132.3008 132.3008s-59.392 132.3008-132.3008 132.3008z m0-225.0752c-51.2 0-92.7744 41.5744-92.7744 92.7744s41.5744 92.7744 92.7744 92.7744c51.2 0 92.7744-41.5744 92.7744-92.7744s-41.5744-92.7744-92.7744-92.7744z"  /><path fill="#E9EBF3" d="M428.8512 199.2704c-10.24 0-18.8416-7.7824-19.6608-18.0224-1.024-10.8544 7.168-20.48 18.0224-21.504l240.0256-21.0944c10.8544-1.024 20.48 7.168 21.504 18.0224 1.024 10.8544-7.168 20.48-18.0224 21.504L430.6944 199.0656c-0.6144 0.2048-1.2288 0.2048-1.8432 0.2048zM482.0992 473.9072c-5.3248 0-10.6496-2.048-14.5408-6.3488L350.208 341.1968c-7.3728-7.9872-6.9632-20.48 1.024-28.0576 7.9872-7.3728 20.48-6.9632 28.0576 1.024l117.3504 126.3616c7.3728 7.9872 6.9632 20.48-1.024 28.0576-3.8912 3.6864-8.8064 5.3248-13.5168 5.3248zM408.7808 805.888c-5.9392 0-11.6736-2.6624-15.5648-7.5776-6.7584-8.6016-5.12-21.0944 3.4816-27.8528l84.3776-65.9456c8.6016-6.7584 21.0944-5.12 27.8528 3.4816 6.7584 8.6016 5.12 21.0944-3.4816 27.8528l-84.3776 65.9456c-3.6864 2.6624-7.9872 4.096-12.288 4.096zM575.488 543.9488c-22.1184 0-39.936-18.0224-39.936-39.936s18.0224-39.936 39.936-39.936 39.936 18.0224 39.936 39.936-17.8176 39.936-39.936 39.936z m0-40.3456c-0.2048 0-0.4096 0.2048-0.4096 0.4096 0 0.4096 0.8192 0.4096 0.8192 0 0-0.2048-0.2048-0.4096-0.4096-0.4096z"  /></svg>